/* XPM */
static char * faircoin32_xpm[] = {
"32 32 582 2",
"  	c None",
". 	c #674827",
"+ 	c #674726",
"@ 	c #664726",
"# 	c #795D3C",
"$ 	c #775936",
"% 	c #563D25",
"& 	c #37281B",
"* 	c #2A231B",
"= 	c #24201C",
"- 	c #231F1B",
"; 	c #261F1A",
"> 	c #302419",
", 	c #4B3520",
"' 	c #6E5131",
") 	c #7E5F3C",
"! 	c #8F7655",
"~ 	c #8A6E4C",
"{ 	c #3F3223",
"] 	c #191B1C",
"^ 	c #1E1E1F",
"/ 	c #22211F",
"( 	c #272420",
"_ 	c #1E1E1E",
": 	c #22201C",
"< 	c #1C1C1D",
"[ 	c #1B1B1C",
"} 	c #191A1C",
"| 	c #2A251E",
"1 	c #765C3D",
"2 	c #9C815C",
"3 	c #C1A881",
"4 	c #69573E",
"5 	c #191A1B",
"6 	c #171718",
"7 	c #272521",
"8 	c #504938",
"9 	c #3F392D",
"0 	c #1B1A19",
"a 	c #413B2F",
"b 	c #1C1B1A",
"c 	c #1B1B1B",
"d 	c #574F3D",
"e 	c #443F31",
"f 	c #383027",
"g 	c #B89E77",
"h 	c #E0CAA0",
"i 	c #2E2B25",
"j 	c #1D1D1D",
"k 	c #1A1A1B",
"l 	c #746B50",
"m 	c #1E1E1D",
"n 	c #615946",
"o 	c #423E34",
"p 	c #171716",
"q 	c #3F3B30",
"r 	c #444033",
"s 	c #504B3C",
"t 	c #33312A",
"u 	c #171615",
"v 	c #635C47",
"w 	c #24231F",
"x 	c #141415",
"y 	c #1F1F1E",
"z 	c #151618",
"A 	c #CAB285",
"B 	c #F6E2B7",
"C 	c #20201F",
"D 	c #1C1C1C",
"E 	c #605847",
"F 	c #1A1A1A",
"G 	c #70654D",
"H 	c #4B4432",
"I 	c #141516",
"J 	c #1F1E1D",
"K 	c #252320",
"L 	c #1D1C1A",
"M 	c #1D1D1C",
"N 	c #131314",
"O 	c #60583F",
"P 	c #1F1F1D",
"Q 	c #665C44",
"R 	c #1D1C1C",
"S 	c #19191B",
"T 	c #E1CA9C",
"U 	c #F5E1B8",
"V 	c #34322C",
"W 	c #1F1F1F",
"X 	c #715E40",
"Y 	c #181818",
"Z 	c #171717",
"` 	c #82745E",
" .	c #D6BB90",
"..	c #E2C99F",
"+.	c #E3CBA3",
"@.	c #DDC59D",
"#.	c #CFB68E",
"$.	c #B99D74",
"%.	c #8F7758",
"&.	c #23201D",
"*.	c #342F24",
"=.	c #4A3F2E",
"-.	c #191919",
";.	c #161719",
">.	c #F0DBAF",
",.	c #CAB998",
"'.	c #9C8C6A",
").	c #2E2B21",
"!.	c #595146",
"~.	c #CDB288",
"{.	c #EAD6AF",
"].	c #F7E8C3",
"^.	c #F8EAC6",
"/.	c #F5E6C2",
"(.	c #EDDBB7",
"_.	c #E5D1AC",
":.	c #D6BF9B",
"<.	c #C1A983",
"[.	c #A98C66",
"}.	c #776043",
"|.	c #1A1918",
"1.	c #292620",
"2.	c #2E2B27",
"3.	c #F2DEB6",
"4.	c #DCC79E",
"5.	c #21201F",
"6.	c #98885F",
"7.	c #7E6D57",
"8.	c #C6AC85",
"9.	c #E7D4AE",
"0.	c #FAEECA",
"a.	c #F9EBC8",
"b.	c #F4E5C1",
"c.	c #EFDDB9",
"d.	c #E4D1AD",
"e.	c #D8C39F",
"f.	c #CAB48F",
"g.	c #BBA27D",
"h.	c #A68963",
"i.	c #7E613F",
"j.	c #161718",
"k.	c #867953",
"l.	c #36342F",
"m.	c #AF9B76",
"n.	c #C6B391",
"o.	c #70624A",
"p.	c #232322",
"q.	c #5A5247",
"r.	c #B1956F",
"s.	c #D5C09B",
"t.	c #EBDAB5",
"u.	c #F6E6C2",
"v.	c #FAEDCA",
"w.	c #F9ECC9",
"x.	c #EEDDB9",
"y.	c #E4D0AC",
"z.	c #C9B28D",
"A.	c #BDA37E",
"B.	c #AF936E",
"C.	c #977954",
"D.	c #795E3D",
"E.	c #252524",
"F.	c #DEC79E",
"G.	c #CDB58E",
"H.	c #161617",
"I.	c #2C2924",
"J.	c #1E1D1D",
"K.	c #211F1D",
"L.	c #664D22",
"M.	c #AF956C",
"N.	c #DFCAA6",
"O.	c #ECD9B5",
"P.	c #F6E7C3",
"Q.	c #F9EDCA",
"R.	c #F9EBC7",
"S.	c #F4E4C0",
"T.	c #E5D1AD",
"U.	c #D9C4A0",
"V.	c #CCB590",
"W.	c #BDA47F",
"X.	c #AD926D",
"Y.	c #9D805B",
"Z.	c #866742",
"`.	c #493F30",
" +	c #26231D",
".+	c #22201D",
"++	c #A48E6B",
"@+	c #96805E",
"#+	c #2D2821",
"$+	c #393126",
"%+	c #151516",
"&+	c #645842",
"*+	c #634C22",
"=+	c #5D4720",
"-+	c #705B35",
";+	c #AF9B74",
">+	c #FAEBC7",
",+	c #F9ECC8",
"'+	c #F5E5C1",
")+	c #D7C29D",
"!+	c #CBB38E",
"~+	c #BCA37E",
"{+	c #B09570",
"]+	c #886A44",
"^+	c #50370F",
"/+	c #61481E",
"(+	c #302719",
"_+	c #24221F",
":+	c #2C2923",
"<+	c #554734",
"[+	c #604F37",
"}+	c #3E382E",
"|+	c #2C2823",
"1+	c #766546",
"2+	c #675027",
"3+	c #5D461C",
"4+	c #604A23",
"5+	c #83714D",
"6+	c #54401D",
"7+	c #7C6844",
"8+	c #C6B591",
"9+	c #E1D1AB",
"0+	c #E9D7B1",
"a+	c #A5926E",
"b+	c #AB9671",
"c+	c #DCC6A1",
"d+	c #CFB893",
"e+	c #B59B75",
"f+	c #664F2C",
"g+	c #442E04",
"h+	c #452E02",
"i+	c #4D3509",
"j+	c #1E1C19",
"k+	c #61533A",
"l+	c #21201D",
"m+	c #403A2E",
"n+	c #25221E",
"o+	c #B89E78",
"p+	c #B09A77",
"q+	c #423829",
"r+	c #312E27",
"s+	c #514934",
"t+	c #1D1C1B",
"u+	c #675023",
"v+	c #614921",
"w+	c #B2A07F",
"x+	c #6A5836",
"y+	c #523E1D",
"z+	c #4B3817",
"A+	c #564422",
"B+	c #93805D",
"C+	c #624E2A",
"D+	c #57421E",
"E+	c #705A34",
"F+	c #4F3913",
"G+	c #5A441B",
"H+	c #432D03",
"I+	c #452E03",
"J+	c #4E3509",
"K+	c #544835",
"L+	c #64583D",
"M+	c #23211D",
"N+	c #262521",
"O+	c #181919",
"P+	c #B29872",
"Q+	c #B49D78",
"R+	c #3A3126",
"S+	c #2E2C26",
"T+	c #242320",
"U+	c #675E47",
"V+	c #1B1A17",
"W+	c #6B5326",
"X+	c #614A20",
"Y+	c #655028",
"Z+	c #9B8864",
"`+	c #624E2B",
" @	c #6B5736",
".@	c #5B4727",
"+@	c #574321",
"@@	c #B8A788",
"#@	c #988768",
"$@	c #A18D6C",
"%@	c #5E4724",
"&@	c #4E3711",
"*@	c #6C542F",
"=@	c #6C542C",
"-@	c #4F370D",
";@	c #5D4218",
">@	c #583E12",
",@	c #68563B",
"'@	c #58513E",
")@	c #3B362A",
"!@	c #25241F",
"~@	c #151718",
"{@	c #AB926D",
"]@	c #B9A27C",
"^@	c #3A3228",
"/@	c #464238",
"(@	c #262522",
"_@	c #786F54",
":@	c #1D1B19",
"<@	c #725B2D",
"[@	c #7D683C",
"}@	c #A5926A",
"|@	c #A18F6A",
"1@	c #93815F",
"2@	c #65502E",
"3@	c #543F1D",
"4@	c #9D8B6D",
"5@	c #806E4D",
"6@	c #4D3A17",
"7@	c #6A5533",
"8@	c #CFBFA1",
"9@	c #CEBDA0",
"0@	c #6F5731",
"a@	c #6B532C",
"b@	c #8C724B",
"c@	c #5A3D16",
"d@	c #785B32",
"e@	c #726043",
"f@	c #494435",
"g@	c #3A362C",
"h@	c #504C3E",
"i@	c #B09773",
"j@	c #BDA783",
"k@	c #453B2D",
"l@	c #3D3930",
"m@	c #23221F",
"n@	c #807656",
"o@	c #917B4C",
"p@	c #9D895D",
"q@	c #BAA681",
"r@	c #D4C09A",
"s@	c #BFAC88",
"t@	c #877350",
"u@	c #553F1D",
"v@	c #5F4A27",
"w@	c #4F3A16",
"x@	c #402D09",
"y@	c #826C4A",
"z@	c #543F1A",
"A@	c #6A522C",
"B@	c #614922",
"C@	c #A38B63",
"D@	c #8C724A",
"E@	c #C8B189",
"F@	c #C7AD81",
"G@	c #5D4E39",
"H@	c #6F674D",
"I@	c #2C2A22",
"J@	c #131517",
"K@	c #BEA57E",
"L@	c #65563E",
"M@	c #494436",
"N@	c #3B372C",
"O@	c #59513D",
"P@	c #A0865E",
"Q@	c #B39C73",
"R@	c #B9A079",
"S@	c #CCB58F",
"T@	c #F1DFBA",
"U@	c #7F6944",
"V@	c #75603E",
"W@	c #644F2A",
"X@	c #4D3913",
"Y@	c #BAA785",
"Z@	c #5F4A26",
"`@	c #7C6744",
" #	c #523D19",
".#	c #B49F7E",
"+#	c #BAA179",
"@#	c #AB9168",
"##	c #9E825A",
"$#	c #29241E",
"%#	c #7C7354",
"&#	c #37342C",
"*#	c #23221E",
"=#	c #CDB58C",
"-#	c #A48F6C",
";#	c #18191A",
">#	c #353127",
",#	c #6C6348",
"'#	c #8B7457",
")#	c #9A7C55",
"!#	c #C4AD87",
"~#	c #DAC5A1",
"{#	c #EAD8B4",
"]#	c #D4C19C",
"^#	c #968465",
"/#	c #6A5532",
"(#	c #C4B08D",
"_#	c #6A532F",
":#	c #8F7A56",
"<#	c #57421F",
"[#	c #9C8767",
"}#	c #AA9168",
"|#	c #A0835D",
"1#	c #866640",
"2#	c #71502C",
"3#	c #524C3A",
"4#	c #323028",
"5#	c #464133",
"6#	c #524837",
"7#	c #CBB693",
"8#	c #DBC69D",
"9#	c #0F1113",
"0#	c #2C2821",
"a#	c #5A523D",
"b#	c #9C7F59",
"c#	c #C0A983",
"d#	c #D8C39E",
"e#	c #F9EAC7",
"f#	c #D7C49A",
"g#	c #D4C4A6",
"h#	c #77603B",
"i#	c #A38E6B",
"j#	c #705B36",
"k#	c #DECDAF",
"l#	c #C7B18B",
"m#	c #BEA681",
"n#	c #A1845F",
"o#	c #886943",
"p#	c #56432D",
"q#	c #403D33",
"r#	c #58513F",
"s#	c #DDCAA4",
"t#	c #665B46",
"u#	c #2C281B",
"v#	c #24231E",
"w#	c #877853",
"x#	c #1E1D1C",
"y#	c #7F6A51",
"z#	c #B69B75",
"A#	c #D9C39F",
"B#	c #EBD9B4",
"C#	c #F6E8C4",
"D#	c #F8EAC7",
"E#	c #D6C299",
"F#	c #DBC69E",
"G#	c #D0B991",
"H#	c #CBB48F",
"I#	c #997B55",
"J#	c #785A37",
"K#	c #7E7152",
"L#	c #20201E",
"M#	c #423E32",
"N#	c #ECD7AE",
"O#	c #E0CCA0",
"P#	c #171818",
"Q#	c #423B2A",
"R#	c #363126",
"S#	c #6C5F41",
"T#	c #9D8667",
"U#	c #CDB58D",
"V#	c #E9D6B1",
"W#	c #D8C29E",
"X#	c #BCA37D",
"Y#	c #A98C68",
"Z#	c #191715",
"`#	c #3E3A30",
" $	c #645942",
".$	c #38352E",
"+$	c #9B8B6A",
"@$	c #E0CCA6",
"#$	c #6C634E",
"$$	c #605338",
"%$	c #504530",
"&$	c #957F63",
"*$	c #D7C096",
"=$	c #F2E0BA",
"-$	c #C6AE89",
";$	c #B0956F",
">$	c #8C6E49",
",$	c #171614",
"'$	c #282621",
")$	c #625743",
"!$	c #4B4435",
"~$	c #131315",
"{$	c #F7E3B8",
"]$	c #F4E0B5",
"^$	c #362F22",
"/$	c #1C1C1A",
"($	c #574A32",
"_$	c #53452E",
":$	c #1C1C1B",
"<$	c #2D261C",
"[$	c #C7AE88",
"}$	c #E6CFA4",
"|$	c #EDD8B0",
"1$	c #EBD8B1",
"2$	c #E4CFA9",
"3$	c #D7C19A",
"4$	c #C5AB83",
"5$	c #AD9066",
"6$	c #53412C",
"7$	c #3B362B",
"8$	c #594D38",
"9$	c #201F1E",
"0$	c #1B1B1A",
"a$	c #DCC598",
"b$	c #D9C094",
"c$	c #1E1C18",
"d$	c #2B251C",
"e$	c #5B4B31",
"f$	c #443723",
"g$	c #1C1A1A",
"h$	c #3B2F23",
"i$	c #665641",
"j$	c #6A5841",
"k$	c #493A2A",
"l$	c #201B17",
"m$	c #312C26",
"n$	c #473D2C",
"o$	c #453B29",
"p$	c #2B2823",
"q$	c #232220",
"r$	c #A6916A",
"s$	c #BEAB89",
"t$	c #B79C73",
"u$	c #1A1A18",
"v$	c #342E25",
"w$	c #2F2C25",
"x$	c #1F1D19",
"y$	c #4D3F2A",
"z$	c #271F15",
"A$	c #51422D",
"B$	c #302A21",
"C$	c #3E3324",
"D$	c #41382C",
"E$	c #262017",
"F$	c #52422C",
"G$	c #28231D",
"H$	c #211F1E",
"I$	c #1B1A18",
"J$	c #8D7654",
"K$	c #B69F7C",
"L$	c #342C22",
"M$	c #232120",
"N$	c #342D22",
"O$	c #1E1E1C",
"P$	c #191918",
"Q$	c #3D3120",
"R$	c #332B21",
"S$	c #25211B",
"T$	c #392B1A",
"U$	c #2A251F",
"V$	c #2E2821",
"W$	c #252019",
"X$	c #191A1A",
"Y$	c #8A6F4C",
"Z$	c #998060",
"`$	c #90734D",
" %	c #63492E",
".%	c #201D1A",
"+%	c #1F1D1A",
"@%	c #27231D",
"#%	c #2C271F",
"$%	c #221E1A",
"%%	c #342C21",
"&%	c #2F2619",
"*%	c #26231F",
"=%	c #4C3925",
"-%	c #8F714D",
";%	c #795934",
">%	c #5D4127",
",%	c #352618",
"'%	c #231C17",
")%	c #1A1B1B",
"!%	c #181A1B",
"~%	c #1B1C1C",
"{%	c #151617",
"]%	c #1E1B18",
"^%	c #2E2117",
"/%	c #503821",
"(%	c #765633",
"_%	c #644423",
":%	c #644222",
"<%	c #624120",
"[%	c #614121",
"}%	c #644221",
"|%	c #644322",
"1%	c #654626",
"                                                                ",
"                            . + + @                             ",
"                    # $ % & * = - ; > , ' )                     ",
"                ! ~ { ] ^ / ( _ / : < [ } | 1 2                 ",
"              3 4 5 [ 6 7 8 9 0 a b c d e _ < f g               ",
"            h i j k l m n o p q r s t u v w x y z A             ",
"          B C D E F G H I j J / K L M N 6 O P Q R S T           ",
"        U V W m X c Y Z `  ...+.@.#.$.%.&.c *.=.-.j ;.>.        ",
"      ,.'._ ).j F c !.~.{.].^./.(._.:.<.[.}.6 |.W 1.W 2.3.      ",
"      4.z 5.6.c _ 7.8.9./.0.a.b.c.d.e.f.g.h.i.j._ k.l.j m.      ",
"    n.o._ _ p._ q.r.s.t.u.v.w./.x.y.e.z.A.B.C.D._ E.j W c F.    ",
"    G.H.I.J.K.H.L.M.N.O.P.Q.R.S.c.T.U.V.W.X.Y.Z.`.< D  +.+++    ",
"    @+[ #+$+%+&+*+=+-+;+>+,+a.'+c.d.)+!+~+{+]+^+/+_ (+_+:+<+    ",
"    [+}+|+1+j 2+3+4+5+6+7+8+9+0+a+b+c+d+e+f+g+h+i+j+k+l+m+n+o+  ",
"  p+q+r+K s+t+u+v+4+w+6+x+y+z+A+B+C+D+E+F+G+H+I+J+K+L+M+N+O+P+  ",
"  Q+R+S+T+U+V+W+X+Y+Z+`+ @.@+@@@#@$@%@&@*@=@-@;@>@,@'@)@!@~@{@  ",
"  ]@^@/@(@_@:@<@[@}@|@1@2@3@4@5@6@7@8@9@0@a@b@c@d@e@f@g@h@p.i@  ",
"  j@k@l@m@n@0 o@p@q@r@s@t@u@v@w@x@y@z@A@B@C@D@E@F@G@H@I@(@J@K@  ",
"    L@M@N@O@c P@Q@R@S@T@U@V@W@X@Y@Z@`@ #.#+#@#r@##$#%#m@&#*#=#  ",
"    -#;#>#,#p '#)#!#~#{#]#^#/#(#_#:#<#[#}#B.|#1#2#-.3#4#5#6#7#  ",
"    8#9#m@0#a#j+b#c#d#(.e#f#g#h#i#j#k#l#m#X.n#o#p#q#r#N+%+m.    ",
"    s#t#u#v#w#x#y#z#A#B#C#0.D#E#F#G#~#H#~+X.I#J#-.K#L#M#Y N#    ",
"      O#P#Q#R#S#F T#U#V#C#0.,+/.x._.W#z.X#Y#Z.Z#`# $.$j +$      ",
"      @$#$D j $$%$O+&$*$=$R.^.b.c.d.)+-$;$>$,$'$)$c !$~${$      ",
"        ]$-.^$/$($_$:$<$[$}$|$1$2$3$4$5$6$-.7$8$9$0$b a$        ",
"          b$H.c$Z d$e$f$F g$h$i$j$k$l$-.m$n$o$p$q$b r$s$        ",
"            t$u$v$w$F x$y$z$A$B$C$D$E$F$G$H$J.j I$J$K$          ",
"              h.L$M$N$: O$P$Q$R$S$T$U$M V$y W$X$Y$Z$            ",
"                `$ %.%+%@%#%$%&._ %%&%<$*%] =%-%                ",
"                    ;%>%,%'%)%!%~%{%]%^%/%(%                    ",
"                          _%:%<%[%}%|%1%                        ",
"                                                                "};
